{"title":"12 Years a Slave (2013) 720p BrRip x264 - prnvsujay","uid":10039041,"size":2099776057,"categoryP":"video","categoryS":"hd___movies","magnet":"?xt=urn:btih:97ea2470a6dbdcab5632eb11c907e7cf92dbf5b6&amp;dn=12+Years+a+Slave+%282013%29+720p+BrRip+x264+-+prnvsujay&amp;tr=udp%3A%2F%2Ftracker.openbittorrent.com%3A80&amp;tr=udp%3A%2F%2Fopen.demonii.com%3A1337&amp;tr=udp%3A%2F%2Ftracker.coppersurfer.tk%3A6969&amp;tr=udp%3A%2F%2Fexodus.desync.com%3A6969","seeders":1,"leechers":0,"uploader":null,"files":2,"time":1398441453,"description":"General\nComplete name                    : E:HollywoodHigh Definition12 Years A Slave - 5.1 Surround (HD-720p)12 Years A Slave.mp4\nFormat                           : MPEG-4\nFormat profile                   : Base Media\nCodec ID                         : isom\nFile size                        : 1.96 GiB\nDuration                         : 2h 14mn\nOverall bit rate                 : 2 087 Kbps\nEncoded date                     : UTC 2014-04-13 16:08:38\nTagged date                      : UTC 2014-04-13 16:08:38\nWriting application              : Lavf55.35.101\n\nVideo\nID                               : 1\nFormat                           : AVC\nFormat/Info                      : Advanced Video Codec\nFormat profile                   : &lt;a class=&quot;__cf_email__&quot; href=&quot;/cdn-cgi/l/email-protection&quot; data-cfemail=&quot;450d2c222d0509716b75&quot;&gt;[email&amp;#160;protected]&lt;/a&gt;&lt;script cf-hash='f9e31' type=&quot;text/javascript&quot;&gt;\n/* &lt;![CDATA[ */!function(){try{var t=&quot;currentScript&quot;in document?document.currentScript:function(){for(var t=document.getElementsByTagName(&quot;script&quot;),e=t.length;e--;)if(t[e].getAttribute(&quot;cf-hash&quot;))return t[e]}();if(t&amp;&amp;t.previousSibling){var e,r,n,i,c=t.previousSibling,a=c.getAttribute(&quot;data-cfemail&quot;);if(a){for(e=&quot;&quot;,r=parseInt(a.substr(0,2),16),n=2;a.length-n;n+=2)i=parseInt(a.substr(n,2),16)^r,e+=String.fromCharCode(i);e=document.createTextNode(e),c.parentNode.replaceChild(e,c)}}}catch(u){}}();/* ]]&gt; */&lt;/script&gt;\nFormat settings, CABAC           : Yes\nFormat settings, ReFrames        : 7 frames\nCodec ID                         : avc1\nCodec ID/Info                    : Advanced Video Coding\nDuration                         : 2h 14mn\nBit rate mode                    : Variable\nBit rate                         : 1 697 Kbps\nMaximum bit rate                 : 5 000 Kbps\nWidth                            : 1 280 pixels\nHeight                           : 532 pixels\nDisplay aspect ratio             : 2.40:1\nFrame rate mode                  : Constant\nFrame rate                       : 23.976 fps\nColor space                      : YUV\nChroma subsampling               : 4:2:0\nBit depth                        : 8 bits\nScan type                        : Progressive\nBits/(Pixel*Frame)               : 0.104\nStream size                      : 1.59 GiB (81%)\nEncoded date                     : UTC 2014-04-13 16:08:38\nTagged date                      : UTC 2014-04-13 16:08:38\nColor primaries                  : BT.709-5, BT.1361, IEC 61966-2-4, SMPTE RP177\nTransfer characteristics         : BT.709-5, BT.1361\nMatrix coefficients              : BT.709-5, BT.1361, IEC 61966-2-4 709, SMPTE RP177\n\nAudio\nID                               : 2\nFormat                           : AC-3\nFormat/Info                      : Audio Coding 3\nMode extension                   : CM (complete main)\nCodec ID                         : ac-3\nDuration                         : 2h 14mn\nBit rate mode                    : Constant\nBit rate                         : 384 Kbps\nChannel(s)                       : 6 channels\nChannel positions                : Front: L C R, Side: L R, LFE\nSampling rate                    : 48.0 KHz\nBit depth                        : 16 bits\nCompression mode                 : Lossy\nStream size                      : 369 MiB (18%)\nLanguage                         : English\nEncoded date                     : UTC 2014-04-13 16:08:38\nTagged date                      : UTC 2014-04-13 16:08:38\n","torrent":{"xt":"urn:btih:97ea2470a6dbdcab5632eb11c907e7cf92dbf5b6","amp;dn":"12+Years+a+Slave+%282013%29+720p+BrRip+x264+-+prnvsujay","amp;tr":["udp%3A%2F%2Ftracker.openbittorrent.com%3A80","udp%3A%2F%2Fopen.demonii.com%3A1337","udp%3A%2F%2Ftracker.coppersurfer.tk%3A6969","udp%3A%2F%2Fexodus.desync.com%3A6969"],"infoHash":"97ea2470a6dbdcab5632eb11c907e7cf92dbf5b6","infoHashBuffer":{"type":"Buffer","data":[151,234,36,112,166,219,220,171,86,50,235,17,201,7,231,207,146,219,245,182]},"announce":[],"urlList":[]}}